<svg id="visual" viewBox="0 0 900 600" width="900" height="600" xmlns="http://www.w3.org/2000/svg" xmlns:xlink="http://www.w3.org/1999/xlink" version="1.1"><path d="M0 399L69 399L69 436L138 436L138 443L208 443L208 463L277 463L277 466L346 466L346 428L415 428L415 404L485 404L485 399L554 399L554 440L623 440L623 491L692 491L692 407L762 407L762 464L831 464L831 490L900 490L900 462L900 601L900 601L831 601L831 601L762 601L762 601L692 601L692 601L623 601L623 601L554 601L554 601L485 601L485 601L415 601L415 601L346 601L346 601L277 601L277 601L208 601L208 601L138 601L138 601L69 601L69 601L0 601Z" fill="#f43f5e"></path><path d="M0 510L69 510L69 433L138 433L138 497L208 497L208 517L277 517L277 451L346 451L346 498L415 498L415 482L485 482L485 458L554 458L554 430L623 430L623 436L692 436L692 494L762 494L762 466L831 466L831 443L900 443L900 476L900 601L900 601L831 601L831 601L762 601L762 601L692 601L692 601L623 601L623 601L554 601L554 601L485 601L485 601L415 601L415 601L346 601L346 601L277 601L277 601L208 601L208 601L138 601L138 601L69 601L69 601L0 601Z" fill="#e93a58"></path><path d="M0 512L69 512L69 470L138 470L138 473L208 473L208 486L277 486L277 500L346 500L346 507L415 507L415 477L485 477L485 491L554 491L554 514L623 514L623 495L692 495L692 467L762 467L762 477L831 477L831 541L900 541L900 512L900 601L900 601L831 601L831 601L762 601L762 601L692 601L692 601L623 601L623 601L554 601L554 601L485 601L485 601L415 601L415 601L346 601L346 601L277 601L277 601L208 601L208 601L138 601L138 601L69 601L69 601L0 601Z" fill="#de3652"></path><path d="M0 521L69 521L69 547L138 547L138 555L208 555L208 533L277 533L277 529L346 529L346 513L415 513L415 504L485 504L485 509L554 509L554 531L623 531L623 542L692 542L692 560L762 560L762 506L831 506L831 549L900 549L900 545L900 601L900 601L831 601L831 601L762 601L762 601L692 601L692 601L623 601L623 601L554 601L554 601L485 601L485 601L415 601L415 601L346 601L346 601L277 601L277 601L208 601L208 601L138 601L138 601L69 601L69 601L0 601Z" fill="#d3314c"></path><path d="M0 547L69 547L69 576L138 576L138 576L208 576L208 544L277 544L277 554L346 554L346 540L415 540L415 540L485 540L485 562L554 562L554 537L623 537L623 562L692 562L692 561L762 561L762 573L831 573L831 575L900 575L900 575L900 601L900 601L831 601L831 601L762 601L762 601L692 601L692 601L623 601L623 601L554 601L554 601L485 601L485 601L415 601L415 601L346 601L346 601L277 601L277 601L208 601L208 601L138 601L138 601L69 601L69 601L0 601Z" fill="#c82d47"></path></svg>