
<!-- Uploaded to: SVG Repo, www.svgrepo.com, Transformed by: SVG Repo Mixer Tools -->
<svg fill="#ffffff" width="800px" height="800px" viewBox="0 0 24 24" xmlns="http://www.w3.org/2000/svg" id="more-vertical" class="icon glyph" stroke="#ffffff">

<g id="SVGRepo_bgCarrier" stroke-width="0"/>

<g id="SVGRepo_tracerCarrier" stroke-linecap="round" stroke-linejoin="round"/>

<g id="SVGRepo_iconCarrier">

<path d="M12,7a1.72,1.72,0,0,1-.39,0,1.66,1.66,0,0,1-.38-.11,2.27,2.27,0,0,1-.34-.19,1.42,1.42,0,0,1-.3-.25,1.42,1.42,0,0,1-.25-.3,1.63,1.63,0,0,1-.19-.34A1.82,1.82,0,0,1,10,5.39,1.72,1.72,0,0,1,10,5a2,2,0,0,1,.59-1.41,1.42,1.42,0,0,1,.3-.25,2.27,2.27,0,0,1,.34-.19A1.66,1.66,0,0,1,11.61,3a2,2,0,0,1,1.8.55A2,2,0,0,1,14,5a1.72,1.72,0,0,1,0,.39,1.82,1.82,0,0,1-.11.38,2.27,2.27,0,0,1-.19.34,1.42,1.42,0,0,1-.25.3A2,2,0,0,1,12,7Z"/>

<path d="M12,14a1.72,1.72,0,0,1-.39,0,1.66,1.66,0,0,1-.38-.11,2.27,2.27,0,0,1-.34-.19,1.42,1.42,0,0,1-.3-.25,2,2,0,0,1,0-2.82,1.42,1.42,0,0,1,.3-.25,2.27,2.27,0,0,1,.34-.19,1.66,1.66,0,0,1,.38-.11,2,2,0,0,1,1.8.55A2,2,0,0,1,12,14Z"/>

<path d="M12,21a1.72,1.72,0,0,1-.39,0,1.66,1.66,0,0,1-.38-.11,2.27,2.27,0,0,1-.34-.19,1.42,1.42,0,0,1-.3-.25,2,2,0,0,1,0-2.82,1.42,1.42,0,0,1,.3-.25,1.63,1.63,0,0,1,.34-.19,1.66,1.66,0,0,1,.38-.11,2,2,0,0,1,1.8.55A2,2,0,0,1,12,21Z"/>

</g>

</svg>