<!--
Copyright (c) <2024> <framework7io>

Permission is hereby granted, free of charge, to any person obtaining a copy
of this software and associated documentation files (the "Software"), to deal
in the Software without restriction, including without limitation the rights
to use, copy, modify, merge, publish, distribute, sublicense, and/or sell
copies of the Software, and to permit persons to whom the Software is
furnished to do so, subject to the following conditions:

The above copyright notice and this permission notice shall be included in all
copies or substantial portions of the Software.

THE SOFTWARE IS PROVIDED "AS IS", WITHOUT WARRANTY OF ANY KIND, EXPRESS OR
IMPLIED, INCLUDING BUT NOT LIMITED TO THE WARRANTIES OF MERCHANTABILITY,
FITNESS FOR A PARTICULAR PURPOSE AND NONINFRINGEMENT. IN NO EVENT SHALL THE
AUTHORS OR COPYRIGHT HOLDERS BE LIABLE FOR ANY CLAIM, DAMAGES OR OTHER
LIABILITY, WHETHER IN AN ACTION OF CONTRACT, TORT OR OTHERWISE, ARISING FROM,
OUT OF OR IN CONNECTION WITH THE SOFTWARE OR THE USE OR OTHER DEALINGS IN THE
SOFTWARE.
-->
<!-- Uploaded to: SVG Repo, www.svgrepo.com, Transformed by: SVG Repo Mixer Tools -->
<svg fill="#ffffff" width="800px" height="800px" viewBox="0 0 56 56" xmlns="http://www.w3.org/2000/svg" stroke="#ffffff">

<g id="SVGRepo_bgCarrier" stroke-width="0"/>

<g id="SVGRepo_tracerCarrier" stroke-linecap="round" stroke-linejoin="round"/>

<g id="SVGRepo_iconCarrier">

<path d="M 14.2539 35.9688 L 25.9492 35.9688 L 25.9492 48.0156 C 25.9492 51.5781 27.4258 54.5781 28.0117 54.5781 C 28.5976 54.5781 30.0742 51.5781 30.0742 48.0156 L 30.0742 35.9688 L 41.7461 35.9688 C 43.3633 35.9688 44.5351 34.9375 44.5351 33.3672 C 44.5351 32.3828 44.2305 31.6797 43.5508 30.9532 L 36.3789 23.1719 C 35.8867 22.6563 35.5820 22.2813 35.6992 21.3203 L 36.8945 12.7657 C 36.9649 12.2735 37.0117 11.9922 37.4336 11.6875 L 43.1992 7.5157 C 44.4883 6.5781 45.0508 5.4297 45.0508 4.3750 C 45.0508 2.8047 43.7851 1.4219 41.9805 1.4219 L 14.0195 1.4219 C 12.2149 1.4219 10.9492 2.8047 10.9492 4.3750 C 10.9492 5.4297 11.5117 6.5781 12.7773 7.5157 L 18.5429 11.6875 C 18.9883 11.9922 19.0351 12.2735 19.1054 12.7657 L 20.3008 21.3203 C 20.4180 22.2813 20.1133 22.6563 19.6211 23.1719 L 12.4492 30.9532 C 11.7695 31.6797 11.4649 32.3828 11.4649 33.3672 C 11.4649 34.9375 12.6367 35.9688 14.2539 35.9688 Z"/>

</g>

</svg>